<?xml version="1.0" standalone="no"?>
<!DOCTYPE svg PUBLIC "-//W3C//DTD SVG 20010904//EN"
 "http://www.w3.org/TR/2001/REC-SVG-20010904/DTD/svg10.dtd">
<svg version="1.0" xmlns="http://www.w3.org/2000/svg"
 width="75.000000pt" height="75.000000pt" viewBox="0 0 75.000000 75.000000"
 preserveAspectRatio="xMidYMid meet">
<metadata>
Created by potrace 1.14, written by Peter Selinger 2001-2017
</metadata>
<g transform="translate(0.000000,75.000000) scale(0.100000,-0.100000)"
fill="#000000" stroke="none">
<path d="M0 375 l0 -375 375 0 375 0 0 375 0 375 -375 0 -375 0 0 -375z m343
124 c29 -15 28 -14 22 -31 -5 -12 -17 -14 -49 -11 -37 5 -46 2 -60 -18 -25
-36 -21 -95 9 -125 21 -21 31 -24 61 -18 32 6 36 4 32 -12 -2 -15 -14 -20 -54
-22 -43 -2 -57 1 -80 22 -27 22 -29 30 -29 91 0 66 1 68 39 101 41 35 72 42
109 23z m191 -4 c29 -22 15 -40 -31 -37 -70 5 -63 -33 13 -71 78 -40 50 -127
-40 -127 -57 0 -76 8 -76 31 0 16 5 18 28 12 45 -11 64 -9 76 11 9 15 7 20 -8
30 -74 45 -81 52 -84 86 -3 28 2 39 25 57 32 26 69 29 97 8z"/>
</g>
</svg>
